<svg width="1280" height="720" xmlns="http://www.w3.org/2000/svg" xmlns:xlink="http://www.w3.org/1999/xlink" overflow="hidden"><defs><clipPath id="clip0"><rect x="0" y="0" width="1280" height="720"/></clipPath></defs><g clip-path="url(#clip0)"><rect x="0" y="0" width="1280" height="720" fill="#FFFFFF"/><path d="M0 0-0.466859 0-0.466859 70.3583 203.866 70.3583" stroke="#000000" stroke-width="0.666667" stroke-miterlimit="8" fill="none" fill-rule="evenodd" transform="matrix(-1 1.22465e-16 1.22465e-16 1 660.366 295.5)"/><path d="M615.5 244.106 615.5 138.003 720.178 138.003 720.178 137.5" stroke="#000000" stroke-width="0.666667" stroke-miterlimit="8" fill="none" fill-rule="evenodd"/><path d="M526.5 212.5C526.5 181.572 551.572 156.5 582.5 156.5 613.428 156.5 638.5 181.572 638.5 212.5 638.5 243.428 613.428 268.5 582.5 268.5 551.572 268.5 526.5 243.428 526.5 212.5Z" stroke="#000000" stroke-width="0.666667" stroke-linejoin="round" stroke-miterlimit="10" fill="none" fill-rule="evenodd"/><path d="M571.5 279.5C571.5 248.572 596.796 223.5 628 223.5 659.204 223.5 684.5 248.572 684.5 279.5 684.5 310.428 659.204 335.5 628 335.5 596.796 335.5 571.5 310.428 571.5 279.5Z" stroke="#000000" stroke-width="0.666667" stroke-linejoin="round" stroke-miterlimit="10" fill="none" fill-rule="evenodd"/><path d="M480.5 279.5C480.5 248.572 505.572 223.5 536.5 223.5 567.428 223.5 592.5 248.572 592.5 279.5 592.5 310.428 567.428 335.5 536.5 335.5 505.572 335.5 480.5 310.428 480.5 279.5Z" stroke="#000000" stroke-width="0.666667" stroke-linejoin="round" stroke-miterlimit="10" fill="none" fill-rule="evenodd"/><path d="M654.5 300.5C654.5 297.739 656.963 295.5 660 295.5 663.038 295.5 665.5 297.739 665.5 300.5 665.5 303.261 663.038 305.5 660 305.5 656.963 305.5 654.5 303.261 654.5 300.5Z" stroke="#000000" stroke-width="1.33333" stroke-miterlimit="8" fill="#F2F2F2" fill-rule="evenodd"/><path d="M608.5 244.5C608.5 241.739 610.739 239.5 613.5 239.5 616.261 239.5 618.5 241.739 618.5 244.5 618.5 247.261 616.261 249.5 613.5 249.5 610.739 249.5 608.5 247.261 608.5 244.5Z" stroke="#000000" stroke-width="1.33333" stroke-miterlimit="8" fill="#A6A6A6" fill-rule="evenodd"/><path d="M576.5 260.5C576.5 257.739 578.963 255.5 582 255.5 585.038 255.5 587.5 257.739 587.5 260.5 587.5 263.261 585.038 265.5 582 265.5 578.963 265.5 576.5 263.261 576.5 260.5Z" stroke="#000000" stroke-width="1.33333" stroke-miterlimit="8" fill-rule="evenodd"/><path d="M0 0 42.0076 0 42.0076 125.483" stroke="#000000" stroke-width="0.666667" stroke-miterlimit="8" fill="none" fill-rule="evenodd" transform="matrix(-1.83697e-16 -1 -1 1.83697e-16 581.983 256.508)"/><text font-family="Calibri,Calibri_MSFontService,sans-serif" font-weight="700" font-size="32" transform="translate(570.892 202)">A<tspan font-size="32" x="-48.7064" y="91">B</tspan><tspan font-size="32" x="44.2681" y="93">C</tspan><tspan font-weight="400" font-size="24" x="-155.711" y="154">particularity</tspan><tspan font-size="24" x="41.9916" y="-72">conformity</tspan><tspan font-weight="400" font-size="24" x="-155.711" y="7">identity</tspan></text></g></svg>