<?xml version="1.0" encoding="UTF-8"?> <svg xmlns="http://www.w3.org/2000/svg" xmlns:xlink="http://www.w3.org/1999/xlink" fill="none" height="152" viewBox="0 0 1080 152" width="1080"><linearGradient id="a"><stop offset="0" stop-color="#77d3ee" stop-opacity="0"></stop><stop offset="1" stop-color="#4aa2d6"></stop></linearGradient><linearGradient id="b" gradientUnits="userSpaceOnUse" x1="404.642" x2="404.642" xlink:href="#a" y1="89.569" y2="-492"></linearGradient><linearGradient id="c" gradientUnits="userSpaceOnUse" x1="805.642" x2="805.642" xlink:href="#a" y1="125.569" y2="-456"></linearGradient><linearGradient id="d" gradientUnits="userSpaceOnUse" x1="727.953" x2="727.953" y1="78.222" y2="-296"><stop offset=".011" stop-color="#f46a33"></stop><stop offset=".405" stop-color="#ef2d4d"></stop></linearGradient><linearGradient id="e"><stop offset=".5" stop-color="#f46a33"></stop><stop offset="1" stop-color="#ef2d4d"></stop></linearGradient><linearGradient id="f" gradientUnits="userSpaceOnUse" x1="533.024" x2="554.057" xlink:href="#e" y1="80.731" y2="80.731"></linearGradient><linearGradient id="g" gradientUnits="userSpaceOnUse" x1="249.227" x2="271.108" xlink:href="#e" y1="78.749" y2="78.749"></linearGradient><linearGradient id="h" gradientUnits="userSpaceOnUse" x1="487.126" x2="508.975" xlink:href="#e" y1="78.749" y2="78.749"></linearGradient><linearGradient id="i" gradientUnits="userSpaceOnUse" x1="274.297" x2="296.564" xlink:href="#e" y1="78.735" y2="78.735"></linearGradient><linearGradient id="j" gradientUnits="userSpaceOnUse" x1="226.589" x2="244.523" xlink:href="#e" y1="81.159" y2="81.159"></linearGradient><linearGradient id="k" gradientUnits="userSpaceOnUse" x1="439.511" x2="457.52" xlink:href="#e" y1="81.16" y2="81.16"></linearGradient><linearGradient id="l" gradientUnits="userSpaceOnUse" x1="560.626" x2="578.569" xlink:href="#e" y1="81.169" y2="81.169"></linearGradient><linearGradient id="m" gradientUnits="userSpaceOnUse" x1="322.1" x2="342.362" xlink:href="#e" y1="78.722" y2="78.722"></linearGradient><linearGradient id="n" gradientUnits="userSpaceOnUse" x1="415.101" x2="435.361" xlink:href="#e" y1="78.749" y2="78.749"></linearGradient><linearGradient id="o" gradientUnits="userSpaceOnUse" x1="167.492" x2="186.505" xlink:href="#e" y1="79.179" y2="79.179"></linearGradient><linearGradient id="p" gradientUnits="userSpaceOnUse" x1="357.526" x2="379.52" xlink:href="#e" y1="78.748" y2="78.748"></linearGradient><linearGradient id="q" gradientUnits="userSpaceOnUse" x1="189.477" x2="209.588" xlink:href="#e" y1="78.764" y2="78.764"></linearGradient><linearGradient id="r" gradientUnits="userSpaceOnUse" x1="464.013" x2="482.683" xlink:href="#e" y1="78.303" y2="78.303"></linearGradient><linearGradient id="s" gradientUnits="userSpaceOnUse" x1="383.983" x2="401.432" xlink:href="#e" y1="76.407" y2="76.407"></linearGradient><linearGradient id="t" gradientUnits="userSpaceOnUse" x1="303.207" x2="320.458" xlink:href="#e" y1="78.301" y2="78.301"></linearGradient><linearGradient id="u" gradientUnits="userSpaceOnUse" x1="513.659" x2="530.939" xlink:href="#e" y1="78.281" y2="78.281"></linearGradient><linearGradient id="v"><stop offset="0" stop-color="#77d3ee"></stop><stop offset="1" stop-color="#4cc3ea"></stop></linearGradient><linearGradient id="w" gradientUnits="userSpaceOnUse" x1="120.212" x2="120.212" xlink:href="#v" y1="129.505" y2="9.365"></linearGradient><linearGradient id="x"><stop offset="0" stop-color="#77d3ee"></stop><stop offset="1" stop-color="#4aa2d6"></stop></linearGradient><linearGradient id="y" gradientUnits="userSpaceOnUse" x1="130.484" x2="130.484" xlink:href="#x" y1="126.624" y2="48.488"></linearGradient><linearGradient id="z" gradientUnits="userSpaceOnUse" x1="80.328" x2="80.328" xlink:href="#v" y1="129.505" y2="9.365"></linearGradient><linearGradient id="A" gradientUnits="userSpaceOnUse" x1="100.367" x2="100.367" xlink:href="#e" y1="191.438" y2="46.505"></linearGradient><linearGradient id="B" gradientUnits="userSpaceOnUse" x1="70.243" x2="70.243" xlink:href="#x" y1="126.624" y2="48.488"></linearGradient><linearGradient id="C" gradientUnits="userSpaceOnUse" x1="100.367" x2="100.367" y1="132.217" y2="94.975"><stop offset="0" stop-color="#6fd0ed"></stop><stop offset="1" stop-color="#3166b5"></stop></linearGradient><linearGradient id="D" gradientUnits="userSpaceOnUse" x1="100.367" x2="100.367" y1="119.96" y2="80.392"><stop offset="0" stop-color="#75d2ed"></stop><stop offset="1" stop-color="#3e85c6"></stop></linearGradient><clipPath id="E"><path d="m0 0h1080v152h-1080z"></path></clipPath><clipPath id="F"><path d="m167.492 64.2679h411.077v29.2522h-411.077z"></path></clipPath><clipPath id="G"><path d="m56 16h89.0332v119.012h-89.0332z"></path></clipPath><clipPath id="H"><path d="m42.1162 21.2861h116.488v110.136h-116.488z"></path></clipPath><clipPath id="I"><path d="m58.2217 21.2861h84.2908v110.153h-84.2908z"></path></clipPath><g clip-path="url(#E)"><path d="m0 0h1080v152h-1080z" fill="#fff"></path><path d="m404.642 89.5842c169.906 0 307.642-130.1921 307.642-290.7922 0-160.6-137.736-290.792-307.642-290.792s-307.642 130.192-307.642 290.792c0 160.6001 137.736 290.7922 307.642 290.7922z" fill="url(#b)"></path><path d="m805.642 125.584c169.906 0 307.638-130.19188 307.638-290.792 0-160.6-137.732-290.792-307.638-290.792s-307.642 130.192-307.642 290.792c0 160.60012 137.736 290.792 307.642 290.792z" fill="url(#c)"></path><path d="m727.953 78.222c109.327 0 197.953-83.77248 197.953-187.111 0-103.339-88.626-187.111-197.953-187.111-109.326 0-197.953 83.772-197.953 187.111 0 103.33852 88.627 187.111 197.953 187.111z" fill="url(#d)"></path><g clip-path="url(#F)"><path d="m552.816 73.55v-4.6082h1.172c.021.1519.064.3125.063.4746-.008 4.557.045 9.117-.063 13.6726-.036 1.5039-.333 3.0429-.776 4.4899-.789 2.5844-2.608 4.3351-5.286 5.1134-3.06.8892-6.151 1.0396-9.198-.0628-2.368-.8571-3.993-2.51-5.042-4.7162-.058-.1241-.078-.2672-.114-.3986.713-.2234 1.091-.0103 1.441.622 1.282 2.3143 3.37 3.5948 6.005 4.0109 2.121.3344 4.241.222 6.297-.4307 3.231-1.0279 4.814-3.3598 5.333-6.4946.067-.406.102-.8177.145-1.2266.006-.0613-.021-.127-.055-.3066-1.501 2.526-3.642 4.122-6.457 4.8243-2.317.5782-4.606.4643-6.836-.4074-4.089-1.5988-6.769-5.8799-6.382-10.1727.434-4.8053 3.734-8.6702 8.276-9.65 3.751-.8089 8.879.4804 11.478 5.2696zm-9.47 14.1647c5.265.0321 9.533-3.9993 9.561-9.0324.029-5.1396-4.258-9.4485-9.435-9.4806-5.053-.0321-9.228 4.2315-9.246 9.4441-.018 5.0535 3.99 9.0382 9.122 9.0689z" fill="url(#f)"></path><path d="m271.108 77.8267h-20.492c-1.164 3.827 2.51 8.9973 7.159 10.1712 4.923 1.2426 11.003-1.2279 12.226-8.2614h1.068c.233 4.6812-4.834 9.4719-10.226 9.688-6.29.2511-11.391-4.3512-11.609-10.4721-.204-5.7675 4.713-10.7815 10.73-10.8838 6.76-.1153 10.847 5.0944 11.146 9.7595zm-1.416-1.1929c-.873-4.5542-5.303-7.7066-10.339-7.4117-4.085.2395-8.356 3.9088-8.59 7.4117z" fill="url(#g)"></path><path d="m508.964 77.815h-20.42c-1.299 3.5744 2.416 8.9608 6.958 10.145 5.387 1.4046 11.28-1.5054 12.379-8.2147h1.067c.441 4.3921-4.697 9.3507-10.03 9.6719-6.357.384-11.678-4.3935-11.789-10.5859-.106-5.9457 5.069-10.9072 11.233-10.7699 5.594.1255 10.895 4.9673 10.604 9.7522zm-20.328-1.1958h18.931c-.49-3.0546-3.721-7.4058-9.45-7.4218-5.607-.0161-8.97 4.2504-9.483 7.4218z" fill="url(#h)"></path><path d="m295.428 73.7968v-4.8842h1.136v19.6563h-1.163v-5.0462c-4.029 7.1823-13.161 7.3838-17.847 2.8268-4.543-4.4184-4.321-11.5686.587-15.7081 5.016-4.23 13.362-3.3349 17.287 3.1524zm-10.154 14.5005c5.516.0204 10.094-4.3147 10.085-9.5522-.009-5.2199-4.53-9.5258-10.019-9.5434-5.455-.0175-9.865 4.2505-9.864 9.5493 0 5.2579 4.382 9.5258 9.8 9.5463z" fill="url(#i)"></path><path d="m243.286 84.6484c-.843.8936-1.508 1.8368-2.396 2.4954-4.572 3.3948-10.844 1.6645-12.957-3.6066-.522-1.3053-.813-2.7654-.864-4.1657-.123-3.3656-.042-6.7385-.04-10.1085 0-.1401.025-.2789.042-.4482h1.156v.787c0 3.1276-.003 6.2552 0 9.3828.002 1.5944.293 3.1276 1.003 4.5804 1.34 2.7421 3.861 4.3482 6.677 4.2373 3.157-.1241 5.645-1.8106 6.662-4.7688.45-1.3083.669-2.7392.716-4.1219.103-3.0765.033-6.1574.033-9.2368 0-.2643 0-.5271 0-.8425h1.16c.013.2322.037.4453.037.6585.002 4.5089.015 9.0192-.004 13.5281-.011 2.4837-.395 4.8973-1.924 6.9779-2.222 3.024-5.405 3.7993-9 3.4124-3.613-.3884-5.741-2.5523-6.989-5.7004-.024-.0613-.003-.1387-.003-.2365.632-.0555 1.145-.1665 1.509.622 1.405 3.0312 3.891 4.4052 7.308 4.2723 3.337-.1299 5.693-1.6339 6.94-4.6461.402-.971.616-2.0135.933-3.0721z" fill="url(#j)"></path><path d="m440.059 68.8002h1.169v.7739 9.3827c0 1.6193.276 3.186 1.023 4.6476 1.358 2.6545 3.489 4.23 6.626 4.1862 3.15-.0438 5.663-1.7784 6.683-4.7293.46-1.3302.677-2.786.725-4.1935.105-3.075.033-6.1574.033-9.2368 0-.2599 0-.5198 0-.8133h1.157c.015.2234.041.4337.041.6454.003 4.5089.01 9.0192-.003 13.5281-.006 2.1288-.32 4.2022-1.354 6.1208-2.126 3.9424-6.607 4.9674-10.5 4.1439-3.229-.6834-5.018-2.8429-6.146-5.7777.624-.0088 1.152-.2687 1.514.4614 1.676 3.3831 4.062 4.6826 7.957 4.4052 3.251-.2307 5.643-2.1727 6.702-5.4799.229-.7111.359-1.4528.521-2.1245-.771.8104-1.449 1.7653-2.353 2.4297-4.59 3.3729-10.847 1.6076-12.935-3.6737-.509-1.2864-.8-2.7188-.848-4.0957-.12-3.3904-.042-6.7866-.042-10.1814 0-.1169.016-.2337.031-.4191z" fill="url(#k)"></path><path d="m560.626 87.484c.681-.0993 1.178-.1373 1.536.6308 1.475 3.1611 4.107 4.4709 7.62 4.2402 3.279-.2147 5.513-1.831 6.691-4.7834.366-.917.558-1.8996.697-2.91-.079.0919-.174.1752-.235.2774-3.172 5.2053-10.927 5.2506-14.213.0817-1.076-1.6937-1.608-3.5495-1.628-5.5207-.037-3.5364-.01-7.0729-.01-10.6633h1.193v.7855c0 3.1276-.003 6.2552.001 9.3828.002 1.5945.297 3.1276 1.01 4.579 1.341 2.7348 3.877 4.3395 6.691 4.2183 3.163-.1358 5.634-1.8208 6.647-4.7863.447-1.3097.664-2.7392.711-4.1234.103-3.0765.031-6.1574.031-9.2368 0-.2628 0-.5256 0-.8293h1.199v.7563c0 4.4373.006 8.8732-.003 13.3105-.003 1.8281-.214 3.627-.934 5.3383-1.734 4.1131-5.554 5.6609-9.79 5.2009-3.662-.3971-6.312-2.6472-7.214-5.95z" fill="url(#l)"></path><path d="m322.1 80.2345h1.117c.121.8673.185 1.7098.361 2.5318.58 2.729 2.283 4.5001 5.064 5.1572 3.316.7841 6.555.4351 9.628-1.025 1.394-.6629 2.457-1.6573 2.803-3.2123.363-1.6295-.285-3.0575-1.784-3.8781-1.359-.7447-2.875-.9403-4.384-1.1272-2.427-.3008-4.857-.5651-7.282-.8732-.489-.0628-.969-.2263-1.438-.3869-1.589-.5432-2.775-1.4835-2.983-3.205-.214-1.774.319-3.3101 1.822-4.4402 1.136-.8542 2.462-1.2674 3.859-1.4762 2.829-.422 5.629-.3782 8.345.6191 2.739 1.006 4.665 3.4503 4.445 7.0436h-1.059c-.085-.6205-.126-1.244-.262-1.85-.533-2.3741-2.131-3.7904-4.47-4.4227-2.679-.7227-5.393-.7052-8.072-.0073-1.674.4366-3.001 1.3214-3.377 3.1276-.314 1.501.232 2.783 1.701 3.332 1.219.4556 2.533.7184 3.83.9155 2.611.3957 5.239.6848 7.861 1.028.27.035.534.1241.793.2088 1.948.6395 3.441 1.7273 3.698 3.8547.261 2.1683-.503 3.9642-2.364 5.2477-2.073 1.4309-4.477 1.9113-6.942 1.9828-1.58.0453-3.214-.0511-4.749-.3957-3.557-.7986-5.665-3.3174-6.002-6.8509-.057-.6001-.099-1.2031-.156-1.9025z" fill="url(#m)"></path><path d="m434.664 75.9636c-.112.0131-.232.0365-.352.0394-.221.0058-.441.0014-.696.0014-.092-.6672-.134-1.2936-.27-1.8981-.464-2.0559-1.737-3.4751-3.771-4.1731-3.018-1.0352-6.085-1.0118-9.129-.1285-1.544.4483-2.682 1.3755-3.019 3.0152-.309 1.5025.238 2.7801 1.712 3.3291 1.218.4541 2.534.7155 3.831.9126 2.611.3957 5.239.6862 7.859 1.0294.269.035.533.1255.792.2102 1.95.6396 3.438 1.7317 3.69 3.8591.258 2.1683-.514 3.9555-2.369 5.2463-1.519 1.0586-3.265 1.5375-5.084 1.8076-2.217.3285-4.431.3621-6.618-.1956-3.501-.8922-5.617-3.3116-5.983-6.8174-.064-.6235-.102-1.2513-.159-1.9449h1.118c.119.8513.183 1.6952.359 2.5173.577 2.6954 2.247 4.4651 4.999 5.1309 3.367.8147 6.655.4672 9.764-1.0469 1.601-.7797 2.722-1.9727 2.806-3.827.066-1.4412-.501-2.656-1.88-3.1904-1.394-.5403-2.89-.9009-4.376-1.136-2.411-.3825-4.852-.587-7.277-.895-.489-.0628-.969-.2278-1.438-.3884-1.589-.5447-2.771-1.4894-2.977-3.2109-.211-1.7755.325-3.3101 1.83-4.4373 1.137-.8512 2.463-1.2645 3.86-1.4718 2.829-.4205 5.629-.3752 8.345.6235 2.726 1.0031 4.671 3.4576 4.43 7.0422z" fill="url(#n)"></path><path d="m167.492 81.3295h1.114c.081.5476.139 1.0951.246 1.6339.559 2.8005 2.27 4.5089 5.173 5.0506 2.443.4555 4.877.4716 7.246-.3504 3.294-1.1419 4.766-4.0694 3.603-7.0729-.563-1.4528-1.661-2.4355-3.105-2.9801-4.015-1.5127-7.916-1.2835-11.621.9432-.759.457-.741.4833-1.816.3373.368-3.3349.737-6.6713 1.111-10.0588h15.617v.987h-14.552c-.289 2.5801-.573 5.0944-.86 7.6511 1.004-.4424 1.896-.9535 2.857-1.2382 3.228-.9564 6.469-.8542 9.644.2249 2.56.8688 4.125 2.6019 4.33 5.2929.216 2.821-.846 5.0915-3.503 6.3779-3.696 1.7872-7.545 1.8573-11.293.2117-2.992-1.3127-4.044-3.9044-4.191-7.0101z" fill="url(#o)"></path><path d="m368.484 89.4391c-5.99 0-10.939-4.8199-10.958-10.6692-.02-5.8609 4.976-10.7304 10.991-10.7129 6.047.0175 11.03 4.868 11.003 10.7115-.027 5.8901-4.973 10.672-11.036 10.6706zm.02-1.1418c5.424-.0132 9.811-4.2782 9.817-9.5449.005-5.2287-4.437-9.5463-9.828-9.5507-5.372-.0058-9.803 4.3454-9.767 9.5901.035 5.239 4.437 9.5186 9.778 9.5055z" fill="url(#p)"></path><path d="m209.588 79.1043c-.097 2.8925-.994 5.7573-3.475 8.0117-4.085 3.7131-13.418 3.589-15.962-4.4607-1.19-3.7685-.864-7.4627 1.504-10.7713 2.151-3.0064 5.301-4.0971 8.956-3.7657 3.78.3417 6.439 2.2953 7.96 5.6711.698 1.5478 1.031 3.3029 1.017 5.3164zm-10.041-9.8018c-3.257 0-5.967 1.4002-7.426 4.0883-1.962 3.6182-1.983 7.3474.095 10.9072 3.011 5.1572 10.811 5.4521 14.31.5986 1.717-2.38 2.078-5.0768 1.73-7.9109-.563-4.5848-4.059-7.6818-8.71-7.6832z" fill="url(#q)"></path><path d="m482.613 88.5455h-1.124c0-.2994 0-.5783 0-.8571-.014-3.6606.06-7.3226-.065-10.9787-.142-4.2154-2.319-6.7677-6.089-7.4277-4.033-.7052-7.766 1.2557-9.373 4.9148-.599 1.3623-.818 2.783-.813 4.2548.01 3.0779.003 6.1574.003 9.2353v.8337h-1.139v-19.6533h1.145v3.7628c.049.0102.099.0219.148.0321.075-.1095.153-.2176.227-.33 2.192-3.3598 5.457-4.6038 9.378-4.2008 4.68.4804 7.483 3.3641 7.667 7.9285.165 4.0665.078 8.1417.099 12.214 0 .0686-.033.1387-.067.2701z" fill="url(#r)"></path><path d="m385.223 88.5469h-1.144c-.027-.146-.072-.2818-.074-.4176-.001-5.3557-.06-10.7129.02-16.0672.072-4.8944 2.705-7.4729 7.766-7.762 1.984-.1125 3.948.0335 5.798.8395 2.116.9214 3.325 2.5407 3.844 4.7046-.776.1265-1.304-.1441-1.584-.8119-.62-1.4849-1.747-2.4749-3.273-3.0005-2.326-.8016-4.704-.8819-7.06-.1475-2.579.8045-4.016 2.6122-4.224 5.1893-.156 1.9493-.031 3.9204-.031 5.9748h11.651v1.1506h-11.69v10.3479z" fill="url(#s)"></path><path d="m304.389 88.5426h-1.182v-19.6008h1.138v3.205c.122-.038.186-.0409.198-.0657 1.617-3.2999 5.179-4.2797 8.606-3.9628.741.0686 1.487.2015 2.202.4001 3.362.933 5.593 4.3804 5.015 7.7459h-1.053c-.062-.5402-.105-1.0644-.182-1.5842-.442-3.0137-2.18-4.8038-5.263-5.3397-1.978-.3446-3.945-.3008-5.761.6717-2.261 1.2119-3.19 3.2663-3.531 5.6069-.171 1.1681-.171 2.3654-.18 3.551-.022 3.0984-.007 6.1968-.007 9.3755z" fill="url(#t)"></path><path d="m513.659 68.9184h1.13v3.3043c.147-.1197.215-.1489.24-.1986 1.292-2.5406 3.544-3.6547 6.317-3.9146 1.964-.1854 3.898.0234 5.699.8819 2.234 1.0645 3.321 2.9218 3.7 5.2258.108.6586.129 1.3317.194 2.0442h-1.177c-.06-.5329-.105-1.0557-.181-1.574-.467-3.1743-2.486-5.1002-5.771-5.4419-1.834-.1913-3.649-.13-5.313.7972-2.215 1.2338-3.129 3.259-3.471 5.569-.169 1.1447-.172 2.3172-.18 3.478-.022 3.1232-.007 6.2464-.007 9.4251h-1.18z" fill="url(#u)"></path></g><g clip-path="url(#G)"><g clip-path="url(#H)"><g clip-path="url(#I)"><path d="m100.367 21.2861s-8.4936 6.8793-17.8567 17.6363c3.7814 6.0512 6.4774 12.7845 7.821 19.958 2.9475-1.6249 6.376-2.5573 10.0337-2.5573 3.658 0 6.859.8719 9.741 2.3967 1.37-7.2006 4.101-13.9527 7.927-20.0164-9.284-10.6298-17.666-17.4173-17.666-17.4173z" fill="#6ed0ed"></path><path d="m115.511 62.9041c1.879-.5194 3.869-.801 5.928-.801v.3046c2.561-2.8744 5.551-5.3963 8.878-7.4739-3.835-5.999-8.148-11.4954-12.285-16.2304-3.825 6.0637-6.556 12.8158-7.927 20.0164 2.052 1.0867 3.881 2.5072 5.406 4.1843z" fill="url(#w)"></path><path d="m121.438 62.4077v17.5821c5.289-3.375 11.446-5.6236 18.091-6.3808-2.215-6.5414-5.486-12.845-9.213-18.6731-3.327 2.0776-6.318 4.5995-8.878 7.4738z" fill="url(#y)"></path><path d="m79.2932 62.7748v-.6717c2.0584 0 4.0484.2795 5.9281.801 1.4495-1.5957 3.177-2.9599 5.1096-4.0237-1.3457-7.1734-4.0395-13.9047-7.821-19.958-4.1102 4.7225-8.388 10.1939-12.1871 16.1575 3.3755 2.138 6.398 4.735 8.9704 7.6949z" fill="url(#z)"></path><path d="m110.108 58.7219c-2.882-1.5269-6.202-2.3968-9.741-2.3968-3.5387 0-7.0863.9325-10.0338 2.5574-1.9326 1.0659-3.6601 2.4301-5.1096 4.0237 2.1467.5945 4.1499 1.5018 5.9546 2.6679 5.5487 3.5877 9.1908 9.6202 9.1908 16.4557 0-6.6958 3.493-12.6197 8.852-16.2305 1.89-1.2744 4.011-2.259 6.294-2.891-1.522-1.6771-3.351-3.0955-5.405-4.1844z" fill="url(#A)"></path><path d="m79.2934 62.7748c-2.5724-2.9599-5.5949-5.5569-8.9705-7.6949-3.6954 5.8009-6.9363 12.0669-9.1315 18.5666 6.6606.8094 12.827 3.1164 18.1042 6.5539v-17.4256z" fill="url(#B)"></path><path d="m100.367 103.644c-1.8972 1.039-3.1746 2.977-3.1746 5.198v6.708c1.5245 3.396 2.5592 7.036 3.0116 10.843.046-.396.104-.791.163-1.183.554-3.64 1.637-7.119 3.175-10.363v-12.006c-1.156 0-2.239.294-3.175.805z" fill="#fff"></path><path d="m121.439 62.1031c-2.059 0-4.049.2795-5.928.801-2.282.632-4.404 1.6166-6.295 2.8911-5.357 3.6128-8.851 9.5367-8.851 16.2304 0-6.8355-3.6427-12.8659-9.1913-16.4557-1.8025-1.166-3.8079-2.0734-5.9546-2.6679-1.8797-.5194-3.8697-.801-5.9281-.801v19.6138c0 5.3087 2.1974 10.1334 5.7781 13.7044.7082.7051 1.4671 1.3621 2.2768 1.9629 3.5829 2.6659 8.1035 4.2549 13.0171 4.2549 4.792 0 9.208-1.512 12.747-4.0588.827-.5945 1.606-1.2453 2.33-1.9483 3.709-3.5919 5.994-8.5001 5.994-13.9151v-19.6138z" fill="#fff"></path><path d="m141.261 91.7397c-8.933 0-17.201 2.6804-23.959 7.236-1.028.6925-2.023 1.4293-2.978 2.2073-4.578 3.725-8.28 8.383-10.784 13.662-1.538 3.244-2.621 6.723-3.175 10.363-.06.392-.115.786-.163 1.183-.4527-3.807-1.4875-7.447-3.012-10.843-2.5018-5.569-6.3274-10.477-11.1083-14.367-.9553-.779-1.9503-1.5149-2.9784-2.2074-6.7576-4.5556-15.0265-7.236-23.9595-7.236-.3022 0-.6045.0042-.9045.0104.2846 9.268 3.7417 17.759 9.3521 24.491 1.0105 1.212 2.0915 2.367 3.2365 3.46 5.8024 5.536 13.2462 9.454 21.5592 10.999.0949.017.1875.036.2824.052 1.4804.265 2.9894.457 4.5205.568 1.048.075 2.107.114 3.175.114s2.127-.039 3.175-.114c10.175-.737 19.344-4.981 26.227-11.494 1.147-1.084 2.231-2.229 3.243-3.435 5.683-6.752 9.189-15.3 9.478-24.6347-.408-.0104-.818-.0188-1.229-.0188z" fill="url(#C)"></path><path d="m139.53 73.609c-6.645.7572-12.803 3.0058-18.091 6.3808v1.7271c0 5.415-2.286 10.3252-5.995 13.9151-.723.7009-1.502 1.3537-2.329 1.9482-3.539 2.5468-7.958 4.0588-12.748 4.0588-4.9132 0-9.4337-1.589-13.0166-4.2548-.8097-.6008-1.5686-1.2578-2.2768-1.9629-3.5807-3.5711-5.7781-8.3958-5.7781-13.7044v-1.5165c-5.2773-3.4375-11.4415-5.7466-18.1043-6.5539-1.8598 5.5026-2.9695 11.1721-2.9695 16.8667 0 .4151.0088.8281.0198 1.239.3001-.0063.6023-.0104.9046-.0104 8.933 0 17.2019 2.6804 23.9595 7.236 1.0281.6925 2.0231 1.4292 2.9784 2.2072 4.7809 3.89 8.6065 8.798 11.1083 14.367v-6.708c0-2.221 1.2774-4.159 3.1747-5.198.933-.511 2.019-.805 3.175-.805v12.006c2.502-5.277 6.206-9.937 10.784-13.662.955-.778 1.95-1.5147 2.978-2.2072 6.758-4.5556 15.027-7.236 23.96-7.236.41 0 .82.0083 1.229.0187.013-.4151.022-.8301.022-1.2473 0-5.7071-1.117-11.3891-2.983-16.9042z" fill="url(#D)"></path></g></g></g><g fill="#3f7ec3"><path d="m180.823 44.5414-2.13 1.831c-.954-1.0903-2.151-1.6252-3.592-1.6252-1.258 0-2.313.432-3.185 1.2961-.873.864-1.299 1.9338-1.299 3.2299 0 1.2962.426 2.366 1.278 3.23.873.8435 1.928 1.2756 3.206 1.2756 1.461 0 2.658-.5555 3.612-1.6459l2.131 1.831c-1.441 1.7076-3.49 2.6951-5.743 2.6951-2.13 0-3.916-.6995-5.397-2.0985-1.481-1.4195-2.212-3.1682-2.212-5.2873 0-2.119.731-3.8677 2.212-5.2873 1.481-1.4195 3.267-2.119 5.397-2.119 2.253 0 4.282 1.0081 5.722 2.6745z"></path><path d="m181.939 56.4327 5.844-14.3395h2.78l5.844 14.3395h-3.328l-.954-2.4071h-5.904l-.954 2.4071zm5.174-4.9376h4.119l-2.049-5.205z"></path><path d="m196.752 56.4327 5.843-14.3395h2.78l5.844 14.3395h-3.328l-.954-2.4071h-5.904l-.954 2.4071zm5.174-4.9376h4.119l-2.05-5.205z"></path><path d="m212.254 56.4327v-2.0779l6.229-6.2542c.548-.5761.812-1.1727.812-1.7693 0-.9875-.812-1.7487-1.806-1.7487-1.055 0-1.908.9052-1.908 2.0779h-2.8c0-1.3373.467-2.4688 1.38-3.3946.913-.9464 2.029-1.4196 3.348-1.4196s2.354.4321 3.247 1.3167c.913.8847 1.359 1.9339 1.359 3.1683 0 1.2961-.609 2.5511-1.806 3.7237l-3.47 3.4975h5.519v2.8802z"></path><path d="m224.103 49.2527c0-1.543.02-2.5511.061-2.9831.142-1.255.71-2.3042 1.704-3.1477s2.171-1.255 3.531-1.255c1.359 0 2.516.4115 3.51 1.255s1.583 1.8927 1.725 3.1477c.04.432.061 1.4401.061 2.9831s-.021 2.5716-.061 3.0037c-.142 1.2549-.731 2.3041-1.725 3.1476s-2.151 1.255-3.51 1.255c-1.36 0-2.537-.4115-3.531-1.255s-1.562-1.8927-1.704-3.1476c-.041-.4321-.061-1.4402-.061-3.0037zm5.296 4.5261c1.116 0 2.008-.7818 2.11-1.8722.04-.3292.061-1.2138.061-2.6539s-.021-2.2219-.041-2.5511c-.142-1.1315-1.014-1.9544-2.13-1.9544s-1.989.8229-2.131 1.9544c-.02.3292-.04 1.1727-.04 2.5511s.02 2.3247.06 2.6539c.102 1.0904.995 1.8722 2.111 1.8722z"></path><path d="m236.176 56.4327v-2.0779l6.229-6.2542c.548-.5761.812-1.1727.812-1.7693 0-.9875-.812-1.7487-1.806-1.7487-1.055 0-1.908.9052-1.908 2.0779h-2.8c0-1.3373.467-2.4688 1.38-3.3946.913-.9464 2.029-1.4196 3.348-1.4196s2.354.4321 3.247 1.3167c.913.8847 1.359 1.9339 1.359 3.1683 0 1.2961-.609 2.5511-1.806 3.7237l-3.47 3.4975h5.52v2.8802z"></path><path d="m249.71 52.2564c.548 1.008 1.481 1.5018 2.8 1.5018 1.441 0 2.516-.8435 2.516-2.0779 0-1.1521-1.075-2.0162-2.719-2.0162-.568 0-1.075.0618-1.522.1852l-.994-1.6459 3.652-3.2299h-4.91v-2.8803h8.989v2.2631l-3.267 3.0036h.02c2.374.2675 3.815 1.9956 3.815 4.2381 0 1.4401-.507 2.6334-1.522 3.6003-.994.967-2.333 1.4401-3.997 1.4401-2.354 0-4.322-1.0698-5.296-2.7979z"></path><path d="m388.939 121.786 1.069-2.55h5.02l1.07 2.55h1.247l-4.381-10.334h-.892l-4.381 10.334zm3.579-8.54 2.065 4.922h-4.129z"></path><path d="m399.807 121.786v-4.463c0-1.245.772-2.105 1.797-2.105 1.054 0 1.663.771 1.663 2.031v4.537h1.099v-4.463c0-1.245.758-2.105 1.783-2.105 1.01 0 1.633.786 1.633 2.031v2.921c0 1.497.847 1.661 1.426 1.661.193 0 .357-.03.476-.075v-.904c-.119.015-.208.03-.283.03-.415 0-.519-.193-.519-.786v-3.084c0-1.705-.936-2.817-2.436-2.817-1.114 0-1.887.489-2.332 1.483-.401-.994-1.129-1.483-2.198-1.483-1.01 0-1.753.549-2.109 1.379v-1.26h-1.099v7.472z"></path><path d="m410.341 120.17c.297 1.142 1.396 1.794 2.822 1.794 1.782 0 2.748-.979 2.748-2.165 0-1.141-.728-1.794-2.273-2.387-1.128-.43-1.633-.741-1.633-1.349s.475-.964 1.173-.964c.579 0 .995.252 1.262.742l.892-.46c-.431-.86-1.159-1.29-2.169-1.29-1.322 0-2.258.83-2.258 1.972 0 1.082.669 1.646 2.035 2.18.698.281 1.189.518 1.456.711.282.193.416.475.416.845 0 .579-.416 1.142-1.649 1.142-1.025 0-1.693-.489-1.886-1.127z"></path><path d="m417.546 119.696c0 1.542.668 2.312 2.005 2.312.386 0 .668-.044.831-.118v-.949c-.193.03-.415.044-.698.044-.727 0-1.039-.341-1.039-1.289v-4.359h1.737v-1.023h-1.737v-2.862h-1.099v2.862h-.877v1.023h.877z"></path><path d="m421.167 118.139c0 1.156.342 2.09 1.04 2.787s1.619 1.053 2.733 1.053c1.233 0 2.243-.445 3.03-1.32l-.728-.711c-.668.711-1.277 1.037-2.302 1.037-1.56 0-2.614-1.052-2.674-2.698h6.075c.015-.148.015-.311.015-.474 0-1.053-.327-1.928-.965-2.64-.639-.726-1.456-1.082-2.481-1.082-1.084 0-1.99.371-2.688 1.097-.698.727-1.055 1.691-1.055 2.891zm1.174-.816c.044-.608.312-1.126.802-1.556s1.084-.653 1.767-.653c.624 0 1.159.223 1.604.653.446.43.669.948.669 1.556z"></path><path d="m430.774 121.786v-4.344c0-1.245.846-2.105 2.02-2.105.297 0 .549.029.742.074v-1.186c-.133-.015-.297-.03-.46-.03-1.084 0-1.901.549-2.302 1.379v-1.26h-1.099v7.472z"></path><path d="m437.835 114.091c-1.055 0-1.961.386-2.688 1.142-.728.756-1.1 1.69-1.1 2.817s.372 2.076 1.1 2.832c.727.756 1.633 1.126 2.688 1.126 1.247 0 2.153-.444 2.718-1.319.044.489.223.845.505 1.067.193.134.46.208.787.208.282 0 .52-.044.698-.119v-.83c-.134.015-.267.03-.386.03-.416 0-.564-.282-.564-.934v-8.659h-1.1v3.974c-.43-.757-1.307-1.335-2.658-1.335zm0 6.894c-.772 0-1.411-.281-1.931-.83-.505-.563-.757-1.26-.757-2.105s.252-1.542.757-2.091c.52-.563 1.159-.845 1.931-.845.802 0 1.47.282 1.99.845.535.549.802 1.246.802 2.091s-.267 1.542-.802 2.105c-.52.549-1.188.83-1.99.83z"></path><path d="m446.958 114.091c-1.054 0-1.96.386-2.688 1.142s-1.099 1.69-1.099 2.817.371 2.076 1.099 2.832 1.634 1.126 2.688 1.126c1.248 0 2.154-.444 2.718-1.319.045.489.223.845.505 1.067.193.134.461.208.787.208.283 0 .52-.044.698-.119v-.83c-.133.015-.267.03-.386.03-.416 0-.564-.282-.564-.934v-5.797h-1.099v1.112c-.431-.757-1.307-1.335-2.659-1.335zm0 6.894c-.772 0-1.411-.281-1.931-.83-.505-.563-.757-1.26-.757-2.105s.252-1.542.757-2.091c.52-.563 1.159-.845 1.931-.845.802 0 1.471.282 1.99.845.535.549.803 1.246.803 2.091s-.268 1.542-.803 2.105c-.519.549-1.188.83-1.99.83z"></path><path d="m453.938 121.786v-4.463c0-1.245.772-2.105 1.797-2.105 1.054 0 1.663.771 1.663 2.031v4.537h1.099v-4.463c0-1.245.758-2.105 1.783-2.105 1.01 0 1.633.786 1.633 2.031v2.921c0 1.497.847 1.661 1.426 1.661.193 0 .357-.03.476-.075v-.904c-.119.015-.208.03-.283.03-.416 0-.519-.193-.519-.786v-3.084c0-1.705-.936-2.817-2.436-2.817-1.114 0-1.887.489-2.332 1.483-.401-.994-1.129-1.483-2.198-1.483-1.01 0-1.753.549-2.109 1.379v-1.26h-1.1v7.472z"></path><path d="m470.286 119.859c.58 1.349 2.035 2.149 3.832 2.149 1.084 0 1.961-.326 2.659-.963.698-.638 1.054-1.483 1.054-2.506 0-.949-.326-1.735-.98-2.357-.639-.623-1.441-.934-2.391-.934-.134 0-.238.014-.297.029l3.297-3.054v-.771h-6.223v1.068h4.47l-3.341 3.128.416.741c.371-.118.757-.178 1.188-.178 1.708 0 2.762.949 2.762 2.328 0 .697-.237 1.275-.727 1.72-.491.43-1.114.652-1.887.652-1.381 0-2.436-.563-2.837-1.512z"></path><path d="m490.428 118.391v-1.023h-5.555v1.023z"></path><path d="m497.376 118.376c0 1.008.356 1.868 1.055 2.58.712.697 1.559 1.052 2.554 1.052s1.842-.355 2.54-1.052 1.055-1.572 1.055-2.595c0-.964-.342-1.779-1.04-2.446-.698-.682-1.5-1.023-2.421-1.023-.297 0-.579.029-.847.089l2.377-3.529h-1.382c-1.619 2.446-2.435 3.692-2.48 3.736-.49.727-.861 1.32-1.084 1.779-.223.46-.327.92-.327 1.409zm3.609-2.432c.683 0 1.263.238 1.753.727s.742 1.067.742 1.749-.252 1.276-.742 1.765-1.07.726-1.753.726-1.262-.237-1.738-.711c-.46-.475-.698-1.068-.698-1.78 0-.711.223-1.304.684-1.764.46-.474 1.054-.712 1.752-.712z"></path><path d="m511.777 121.786 1.07-2.55h5.02l1.069 2.55h1.248l-4.381-10.334h-.892l-4.381 10.334zm3.58-8.54 2.064 4.922h-4.129z"></path><path d="m522.646 124.648v-3.974c.43.756 1.307 1.334 2.658 1.334 1.055 0 1.961-.37 2.689-1.126.727-.756 1.099-1.705 1.099-2.832s-.372-2.061-1.099-2.817c-.728-.756-1.634-1.142-2.689-1.142-1.351 0-2.228.578-2.658 1.335v-1.112h-1.1v10.334zm2.658-3.663c-.802 0-1.47-.281-2.005-.83-.52-.563-.787-1.26-.787-2.105s.267-1.542.787-2.091c.535-.563 1.203-.845 2.005-.845.773 0 1.411.282 1.916.845.52.549.773 1.246.773 2.091s-.253 1.542-.773 2.105c-.505.549-1.143.83-1.916.83z"></path><path d="m531.551 121.786v-4.344c0-1.245.847-2.105 2.02-2.105.297 0 .55.029.743.074v-1.186c-.134-.015-.297-.03-.461-.03-1.084 0-1.901.549-2.302 1.379v-1.26h-1.099v7.472z"></path><path d="m535.834 120.378c0 1.052.445 1.586 1.351 1.586.283 0 .52-.044.698-.119v-.904c-.133.015-.267.03-.386.03-.416 0-.564-.238-.564-.786v-5.871h-1.099zm1.069-7.517c.297-.297.297-.771 0-1.053-.297-.297-.742-.297-1.04 0-.297.282-.297.756 0 1.053.298.281.743.281 1.04 0z"></path><path d="m538.909 119.903c0 .905.252 1.527.668 1.779.431.252.758.326 1.218.326.312 0 .55-.044.683-.118v-.934c-.104.015-.282.029-.534.029-.699 0-.936-.326-.936-1.156v-8.377h-1.099z"></path><path d="m554.223 121.786v-1.067h-5.02l3.698-4.107c.713-.816 1.069-1.631 1.069-2.447 0-.815-.297-1.497-.876-2.075-.579-.579-1.292-.86-2.109-.86s-1.53.281-2.109.86c-.579.578-.876 1.26-.876 2.075h1.143c0-.504.178-.934.535-1.29.356-.37.787-.548 1.292-.548s.936.178 1.292.534c.372.355.55.785.55 1.289 0 .579-.223 1.127-.683 1.646l-4.649 5.234v.756z"></path><path d="m555.381 118.836c.089.904.46 1.66 1.128 2.268.669.608 1.441.904 2.347.904s1.679-.296 2.347-.904 1.04-1.364 1.129-2.268c.029-.327.044-1.068.044-2.224 0-1.142-.015-1.883-.044-2.209-.089-.905-.461-1.646-1.129-2.254s-1.441-.919-2.347-.919-1.678.311-2.347.919c-.668.608-1.039 1.349-1.128 2.254-.03.326-.045 1.067-.045 2.209 0 1.156.015 1.897.045 2.224zm1.099-.075c-.03-.281-.045-1.008-.045-2.149 0-1.142.015-1.854.045-2.135.059-.623.312-1.142.757-1.542.461-.401.995-.608 1.619-.608s1.159.207 1.604.608c.461.4.713.919.773 1.542.029.281.044.993.044 2.135 0 1.141-.015 1.868-.044 2.149-.06.623-.312 1.142-.773 1.542-.445.401-.98.608-1.604.608s-1.158-.207-1.619-.608c-.445-.4-.698-.919-.757-1.542z"></path><path d="m569.902 121.786v-1.067h-5.02l3.698-4.107c.713-.816 1.07-1.631 1.07-2.447 0-.815-.297-1.497-.877-2.075-.579-.579-1.292-.86-2.109-.86-.816 0-1.529.281-2.109.86-.579.578-.876 1.26-.876 2.075h1.144c0-.504.178-.934.534-1.29.357-.37.788-.548 1.293-.548s.935.178 1.292.534c.371.355.549.785.549 1.289 0 .579-.223 1.127-.683 1.646l-4.649 5.234v.756z"></path><path d="m570.6 119.859c.579 1.349 2.034 2.149 3.832 2.149 1.084 0 1.96-.326 2.658-.963.698-.638 1.055-1.483 1.055-2.506 0-.949-.327-1.735-.98-2.357-.639-.623-1.441-.934-2.392-.934-.133 0-.237.014-.297.029l3.297-3.054v-.771h-6.223v1.068h4.471l-3.342 3.128.416.741c.371-.118.757-.178 1.188-.178 1.708 0 2.763.949 2.763 2.328 0 .697-.238 1.275-.728 1.72-.49.43-1.114.652-1.886.652-1.382 0-2.436-.563-2.837-1.512z"></path></g></g></svg> 